<?xml version="1.0" standalone="no"?>
<!DOCTYPE svg PUBLIC "-//W3C//DTD SVG 20010904//EN"
 "http://www.w3.org/TR/2001/REC-SVG-20010904/DTD/svg10.dtd">
<svg version="1.0" xmlns="http://www.w3.org/2000/svg"
 width="700.000000pt" height="700.000000pt" viewBox="0 0 700.000000 700.000000"
 preserveAspectRatio="xMidYMid meet">
<metadata>
Created by potrace 1.14, written by Peter Selinger 2001-2017
</metadata>
<g transform="translate(0.000000,700.000000) scale(0.100000,-0.100000)"
fill="#000000" stroke="none">
<path d="M1043 6772 l-23 -3 0 -3275 0 -3274 469 0 470 0 0 1833 c0 1007 1
1874 1 1925 l0 93 55 -6 c235 -25 495 -155 675 -335 118 -118 240 -309 274
-430 4 -14 11 -34 16 -45 22 -47 48 -225 50 -338 1 -67 3 -699 4 -1404 1 -706
5 -1285 8 -1288 6 -6 919 -7 926 -1 2 3 4 394 4 871 l0 867 61 -6 c142 -14
353 -92 484 -177 211 -140 380 -357 465 -599 55 -158 62 -226 63 -627 l0 -333
470 0 471 0 -1 373 c-1 204 -5 390 -8 412 -4 22 -9 65 -12 95 -4 30 -8 62 -10
70 -2 8 -7 31 -10 50 -30 177 -144 483 -238 634 -75 122 -107 170 -146 221
-86 113 -175 209 -273 296 l-78 69 32 27 c64 55 214 210 270 278 147 182 290
441 362 655 26 79 64 218 70 260 6 34 20 114 21 120 15 61 19 393 19 1573 l1
1417 -60 1 c-360 3 -875 3 -876 -1 -1 -3 -2 -639 -3 -1415 -3 -1546 0 -1459
-62 -1645 -69 -204 -208 -401 -379 -536 -163 -129 -370 -216 -592 -249 l-43
-7 -1 74 c-1 40 -2 84 -4 98 -19 183 -42 302 -86 443 -79 258 -202 487 -380
707 -73 91 -207 227 -277 280 l-32 26 51 44 c320 277 562 666 663 1065 14 55
28 116 31 135 3 19 8 42 10 50 2 8 7 42 10 75 4 33 9 74 11 90 5 47 6 757 0
762 -4 4 -655 7 -887 4 l-47 -1 0 -332 c0 -183 -3 -353 -6 -378 -25 -195 -89
-365 -195 -525 -52 -79 -214 -245 -281 -290 -25 -17 -47 -33 -50 -36 -12 -14
-161 -90 -224 -113 -83 -31 -175 -56 -231 -62 -22 -2 -50 -7 -62 -9 l-23 -5 0
387 c-1 214 -1 607 -1 876 l0 487 -37 1 c-161 2 -862 3 -879 1z"/>
</g>
</svg>
