<?xml version="1.0" encoding="UTF-8"?>
<svg id="Layer_1" data-name="Layer 1" xmlns="http://www.w3.org/2000/svg" version="1.1" viewBox="0 0 800 128.85">
  <defs>
    <style>
      .cls-1 {
        fill: #231f20;
        stroke-width: 0px;
      }
    </style>
  </defs>
  <path class="cls-1" d="M62.39,93.13v9.87h-15.6v-9.77c0-10.07-7.8-18.46-17.87-19.35v29.12h-15.6V28.96h15.6v29.12c10.07-.89,17.87-9.28,17.87-19.35v-9.77h15.6v9.87c0,10.56-4.74,20.44-12.93,27.15,8.19,6.61,12.93,16.59,12.93,27.15Z"/>
  <path class="cls-1" d="M105.91,28.98l18.04,74.03h-20.53l-1.97-12.96h-15.34l-1.97,12.96h-20.22l17.73-74.03h24.26ZM93.68,44.12l-5.29,31.42h10.78l-5.29-31.42h-.21Z"/>
  <path class="cls-1" d="M153.29,48.58c0-2.21-.45-4.1-1.35-5.65-.9-1.56-2.28-2.33-4.15-2.33-2.07,0-3.59.67-4.56,2.02-.97,1.35-1.45,2.85-1.45,4.51,0,2.42.78,4.34,2.33,5.75,1.56,1.42,3.51,2.64,5.86,3.68,2.35,1.04,4.87,2.09,7.57,3.16,2.7,1.07,5.22,2.47,7.57,4.2,2.35,1.73,4.3,3.99,5.86,6.79s2.33,6.45,2.33,10.94c0,7.88-2.25,13.6-6.74,17.16-4.49,3.56-10.99,5.34-19.49,5.34-4.01,0-7.55-.33-10.63-.99-3.08-.66-5.67-1.8-7.78-3.42-2.11-1.62-3.72-3.75-4.82-6.38-1.11-2.63-1.66-5.87-1.66-9.75v-2.59h18.66v1.76c0,3.18.59,5.41,1.76,6.69,1.17,1.28,2.7,1.92,4.56,1.92,2,0,3.54-.69,4.61-2.07,1.07-1.38,1.61-3.08,1.61-5.08,0-2.42-.74-4.34-2.23-5.75-1.49-1.42-3.35-2.63-5.6-3.63-2.25-1-4.68-2.02-7.31-3.06-2.63-1.04-5.06-2.38-7.31-4.04-2.25-1.66-4.11-3.84-5.6-6.53-1.49-2.7-2.23-6.22-2.23-10.58,0-7.53,2-13.27,6.01-17.21,4.01-3.94,10.09-5.91,18.25-5.91s14.53,1.81,18.3,5.44c3.77,3.63,5.65,9.42,5.65,17.37h-18.04v-1.76Z"/>
  <path class="cls-1" d="M223.38,51.37c0,12.34-10.57,22.41-23.53,22.41h-7.36v29.22c-9.02,0-16.38-7.01-16.38-15.6V28.96h23.74c12.96,0,23.53,10.07,23.53,22.41ZM199.84,44.56h-7.36v13.62h7.36c3.94,0,7.15-3.06,7.15-6.81s-3.11-6.81-7.15-6.81Z"/>
  <path class="cls-1" d="M269.92,28.98v15.76h-24.57v12.65h23.02v15.14h-23.02v14.72h25.51v15.76h-44.79V28.98h43.86Z"/>
  <path class="cls-1" d="M317.52,69.54c6.16,6.52,9.55,14.81,9.55,23.6v9.87h-16.22v-9.77c0-10.07-8.11-18.46-18.58-19.35v29.12h-16.22V28.96h27.72c12.83,0,23.31,10.07,23.31,22.41,0,7.21-3.49,13.92-9.55,18.16ZM303.77,44.56h-11.5v13.62h11.5c3.9,0,7.08-3.06,7.08-6.81s-3.08-6.81-7.08-6.81Z"/>
  <path class="cls-1" d="M404.85,93.13v9.87h-15.6v-9.77c0-10.07-7.8-18.46-17.87-19.35v29.12h-15.6V28.96h15.6v29.12c10.07-.89,17.87-9.28,17.87-19.35v-9.77h15.6v9.87c0,10.56-4.74,20.44-12.93,27.15,8.19,6.61,12.93,16.59,12.93,27.15Z"/>
  <path class="cls-1" d="M448.37,28.98l18.04,74.03h-20.53l-1.97-12.96h-15.34l-1.97,12.96h-20.22l17.73-74.03h24.26ZM436.13,44.12l-5.29,31.42h10.78l-5.29-31.42h-.21Z"/>
  <path class="cls-1" d="M509.24,69.54c6.16,6.52,9.55,14.81,9.55,23.6v9.87h-16.22v-9.77c0-10.07-8.11-18.46-18.58-19.35v29.12h-16.22V28.96h27.72c12.83,0,23.31,10.07,23.31,22.41,0,7.21-3.49,13.92-9.55,18.16ZM495.48,44.56h-11.5v13.62h11.5c3.9,0,7.08-3.06,7.08-6.81s-3.08-6.81-7.08-6.81Z"/>
  <path class="cls-1" d="M544.58,28.98v58.27h23.74v15.76h-43.03V28.98h19.29Z"/>
  <path class="cls-1" d="M620.37,62.78v40.23h-13.06l-.42-6.53h-.21c-.62,1.59-1.5,2.9-2.64,3.94-1.14,1.04-2.42,1.81-3.84,2.33-1.42.52-2.94.88-4.56,1.09-1.62.21-3.27.31-4.92.31-4.91,0-8.78-.81-11.61-2.44-2.83-1.62-4.98-4.06-6.43-7.31-1.45-3.25-2.37-7.26-2.75-12.03-.38-4.77-.57-10.23-.57-16.38s.36-11.72,1.09-16.48c.73-4.77,2.11-8.78,4.15-12.03,2.04-3.25,4.85-5.72,8.45-7.41,3.59-1.69,8.22-2.54,13.89-2.54,3.39,0,6.51.45,9.38,1.35,2.87.9,5.34,2.35,7.41,4.35,2.07,2.01,3.7,4.58,4.87,7.72,1.17,3.15,1.76,6.96,1.76,11.46h-18.66c0-3.94-.35-6.81-1.04-8.61-.69-2.14-2.18-3.21-4.46-3.21-1.59,0-2.85.38-3.78,1.14-.93.76-1.62,2.11-2.07,4.04-.45,1.94-.74,4.55-.88,7.83-.14,3.28-.21,7.41-.21,12.39s.07,9.11.21,12.39c.14,3.28.43,5.89.88,7.83.45,1.94,1.11,3.28,1.97,4.04.86.76,2.02,1.14,3.47,1.14,1.04,0,1.95-.21,2.75-.62.79-.41,1.47-1.19,2.02-2.33.55-1.14.98-2.73,1.3-4.77.31-2.04.47-4.65.47-7.83h-6.84v-13.06h24.88Z"/>
  <path class="cls-1" d="M667.87,69.54c6.16,6.52,9.55,14.81,9.55,23.6v9.87h-16.22v-9.77c0-10.07-8.11-18.46-18.58-19.35v29.12h-16.22V28.96h27.72c12.83,0,23.31,10.07,23.31,22.41,0,7.21-3.49,13.92-9.55,18.16ZM654.11,44.56h-11.5v13.62h11.5c3.9,0,7.08-3.06,7.08-6.81s-3.08-6.81-7.08-6.81Z"/>
  <path class="cls-1" d="M727.78,28.98v15.76h-24.57v12.65h23.02v15.14h-23.02v14.72h25.5v15.76h-44.79V28.98h43.86Z"/>
  <path class="cls-1" d="M755.98,28.98l12.44,45.62h.21V28.98h18.04v74.03h-21.15l-12.86-45.72h-.21v45.72h-18.04V28.98h21.57Z"/>
</svg>