<?xml version="1.0" encoding="utf-8"?>
<!-- Generator: Adobe Illustrator 18.0.0, SVG Export Plug-In . SVG Version: 6.00 Build 0)  -->
<!DOCTYPE svg PUBLIC "-//W3C//DTD SVG 1.1//EN" "http://www.w3.org/Graphics/SVG/1.1/DTD/svg11.dtd">
<svg version="1.1" xmlns="http://www.w3.org/2000/svg" xmlns:xlink="http://www.w3.org/1999/xlink" x="0px" y="0px"
	 viewBox="0 0 100 100" enable-background="new 0 0 100 100" xml:space="preserve">
<g id="Layer_1">
	<path fill="#E0E0E0" d="M-55.1-3.9L-55.1-3.9c-27.6,0-50-22.4-50-50v0c0-27.6,22.4-50,50-50h0c27.6,0,50,22.4,50,50v0
		C-5.1-26.3-27.5-3.9-55.1-3.9z"/>
	<path fill="#E0E0E0" d="M49.9-3.9L49.9-3.9c-27.6,0-50-22.4-50-50v0c0-27.6,22.4-50,50-50h0c27.6,0,50,22.4,50,50v0
		C99.9-26.3,77.5-3.9,49.9-3.9z"/>
	<path fill="#E0E0E0" d="M-55.1,100.1L-55.1,100.1c-27.6,0-50-22.4-50-50v0c0-27.6,22.4-50,50-50h0c27.6,0,50,22.4,50,50v0
		C-5.1,77.7-27.5,100.1-55.1,100.1z"/>
	<path fill="#E0E0E0" d="M49.9,100.1L49.9,100.1c-27.6,0-50-22.4-50-50v0c0-27.6,22.4-50,50-50h0c27.6,0,50,22.4,50,50v0
		C99.9,77.7,77.5,100.1,49.9,100.1z"/>
</g>
<g id="Layer_2">
	<linearGradient id="SVGID_1_" gradientUnits="userSpaceOnUse" x1="18.1895" y1="51.2833" x2="128.8271" y2="51.2833">
		<stop  offset="0" style="stop-color:#E61D72;stop-opacity:0"/>
		<stop  offset="0.1277" style="stop-color:#EC1E7F;stop-opacity:0.2207"/>
		<stop  offset="0.3304" style="stop-color:#F41F90;stop-opacity:0.5709"/>
		<stop  offset="0.3866" style="stop-color:#F62F7D;stop-opacity:0.607"/>
		<stop  offset="0.5031" style="stop-color:#F94C5B;stop-opacity:0.6816"/>
		<stop  offset="0.6222" style="stop-color:#FC6340;stop-opacity:0.758"/>
		<stop  offset="0.7433" style="stop-color:#FE732D;stop-opacity:0.8355"/>
		<stop  offset="0.8676" style="stop-color:#FF7D22;stop-opacity:0.9152"/>
		<stop  offset="1" style="stop-color:#FF801E"/>
	</linearGradient>
	<circle fill="url(#SVGID_1_)" cx="50.3" cy="51.3" r="32.1"/>
	<linearGradient id="SVGID_2_" gradientUnits="userSpaceOnUse" x1="-78.5891" y1="-28.7331" x2="-31.6614" y2="-77.6162">
		<stop  offset="0" style="stop-color:#E61D72;stop-opacity:0"/>
		<stop  offset="0.1277" style="stop-color:#EC1E7F;stop-opacity:0.2207"/>
		<stop  offset="0.3304" style="stop-color:#F41F90;stop-opacity:0.5709"/>
		<stop  offset="0.3866" style="stop-color:#F62F7D;stop-opacity:0.607"/>
		<stop  offset="0.5031" style="stop-color:#F94C5B;stop-opacity:0.6816"/>
		<stop  offset="0.6222" style="stop-color:#FC6340;stop-opacity:0.758"/>
		<stop  offset="0.7433" style="stop-color:#FE732D;stop-opacity:0.8355"/>
		<stop  offset="0.8676" style="stop-color:#FF7D22;stop-opacity:0.9152"/>
		<stop  offset="1" style="stop-color:#FF801E"/>
	</linearGradient>
	<rect x="-85" y="-71.5" fill="url(#SVGID_2_)" width="59.7" height="36.6"/>
	<linearGradient id="SVGID_3_" gradientUnits="userSpaceOnUse" x1="-58.1378" y1="-54.4217" x2="-39.9486" y2="-73.3688">
		<stop  offset="0" style="stop-color:#E61D72;stop-opacity:0"/>
		<stop  offset="0.1277" style="stop-color:#EC1E7F;stop-opacity:0.2207"/>
		<stop  offset="0.3304" style="stop-color:#F41F90;stop-opacity:0.5709"/>
		<stop  offset="0.3866" style="stop-color:#F62F7D;stop-opacity:0.607"/>
		<stop  offset="0.5031" style="stop-color:#F94C5B;stop-opacity:0.6816"/>
		<stop  offset="0.6222" style="stop-color:#FC6340;stop-opacity:0.758"/>
		<stop  offset="0.7433" style="stop-color:#FE732D;stop-opacity:0.8355"/>
		<stop  offset="0.8676" style="stop-color:#FF7D22;stop-opacity:0.9152"/>
		<stop  offset="1" style="stop-color:#FF801E"/>
	</linearGradient>
	<path fill="url(#SVGID_3_)" d="M-44.2-52.1h-9.7c-2.5,0-4.5-2-4.5-4.5v-14.5c0-2.5,2-4.5,4.5-4.5h9.7c2.5,0,4.5,2,4.5,4.5v14.5
		C-39.7-54.1-41.7-52.1-44.2-52.1z"/>
	<g>
		<linearGradient id="SVGID_4_" gradientUnits="userSpaceOnUse" x1="-413.3716" y1="-237.4881" x2="-394.7517" y2="-256.8838">
			<stop  offset="0" style="stop-color:#E61D72;stop-opacity:0"/>
			<stop  offset="0.1277" style="stop-color:#EC1E7F;stop-opacity:0.2207"/>
			<stop  offset="0.3304" style="stop-color:#F41F90;stop-opacity:0.5709"/>
			<stop  offset="0.3866" style="stop-color:#F62F7D;stop-opacity:0.607"/>
			<stop  offset="0.5031" style="stop-color:#F94C5B;stop-opacity:0.6816"/>
			<stop  offset="0.6222" style="stop-color:#FC6340;stop-opacity:0.758"/>
			<stop  offset="0.7433" style="stop-color:#FE732D;stop-opacity:0.8355"/>
			<stop  offset="0.8676" style="stop-color:#FF7D22;stop-opacity:0.9152"/>
			<stop  offset="1" style="stop-color:#FF801E"/>
		</linearGradient>
		<path fill="url(#SVGID_4_)" d="M-404-247.2C-404.1-247.2-404.1-247.2-404-247.2C-404.1-247.2-404-247.2-404-247.2
			C-404-247.2-404-247.2-404-247.2z"/>
		<linearGradient id="SVGID_5_" gradientUnits="userSpaceOnUse" x1="-532.5059" y1="-105.3984" x2="-399.4284" y2="-244.0208">
			<stop  offset="0" style="stop-color:#E61D72;stop-opacity:0"/>
			<stop  offset="0.1277" style="stop-color:#EC1E7F;stop-opacity:0.2207"/>
			<stop  offset="0.3304" style="stop-color:#F41F90;stop-opacity:0.5709"/>
			<stop  offset="0.3866" style="stop-color:#F62F7D;stop-opacity:0.607"/>
			<stop  offset="0.5031" style="stop-color:#F94C5B;stop-opacity:0.6816"/>
			<stop  offset="0.6222" style="stop-color:#FC6340;stop-opacity:0.758"/>
			<stop  offset="0.7433" style="stop-color:#FE732D;stop-opacity:0.8355"/>
			<stop  offset="0.8676" style="stop-color:#FF7D22;stop-opacity:0.9152"/>
			<stop  offset="1" style="stop-color:#FF801E"/>
		</linearGradient>
		<path fill="url(#SVGID_5_)" d="M-396.7-238.9c-2.3-2.9-4.7-5.6-7.3-8.2c2,2.1,3.6,4.4,4.8,6.9
			C-398.3-239.9-397.5-239.4-396.7-238.9z"/>
		<linearGradient id="SVGID_6_" gradientUnits="userSpaceOnUse" x1="-485.7378" y1="-217.8878" x2="-433.4058" y2="-272.4003">
			<stop  offset="0" style="stop-color:#E61D72;stop-opacity:0"/>
			<stop  offset="0.1277" style="stop-color:#EC1E7F;stop-opacity:0.2207"/>
			<stop  offset="0.3304" style="stop-color:#F41F90;stop-opacity:0.5709"/>
			<stop  offset="0.3866" style="stop-color:#F62F7D;stop-opacity:0.607"/>
			<stop  offset="0.5031" style="stop-color:#F94C5B;stop-opacity:0.6816"/>
			<stop  offset="0.6222" style="stop-color:#FC6340;stop-opacity:0.758"/>
			<stop  offset="0.7433" style="stop-color:#FE732D;stop-opacity:0.8355"/>
			<stop  offset="0.8676" style="stop-color:#FF7D22;stop-opacity:0.9152"/>
			<stop  offset="1" style="stop-color:#FF801E"/>
		</linearGradient>
		<path fill="url(#SVGID_6_)" d="M-448-253.7c6.3-6.3,11.6-2.7,17.6-13c-3.5-1.9-7.2-3.5-10.9-5l-54.9,54.9"/>
		<linearGradient id="SVGID_7_" gradientUnits="userSpaceOnUse" x1="-540.737" y1="-113.3004" x2="-407.6596" y2="-251.9227">
			<stop  offset="0" style="stop-color:#E61D72;stop-opacity:0"/>
			<stop  offset="0.1277" style="stop-color:#EC1E7F;stop-opacity:0.2207"/>
			<stop  offset="0.3304" style="stop-color:#F41F90;stop-opacity:0.5709"/>
			<stop  offset="0.3866" style="stop-color:#F62F7D;stop-opacity:0.607"/>
			<stop  offset="0.5031" style="stop-color:#F94C5B;stop-opacity:0.6816"/>
			<stop  offset="0.6222" style="stop-color:#FC6340;stop-opacity:0.758"/>
			<stop  offset="0.7433" style="stop-color:#FE732D;stop-opacity:0.8355"/>
			<stop  offset="0.8676" style="stop-color:#FF7D22;stop-opacity:0.9152"/>
			<stop  offset="1" style="stop-color:#FF801E"/>
		</linearGradient>
		<path fill="url(#SVGID_7_)" d="M-404.4-247.5c0.1,0.1,0.2,0.2,0.3,0.3c-2.7-2.8-5.6-5.4-8.6-7.8c0.6,0.8,1.1,1.7,1.5,2.6
			C-408.8-251.2-406.5-249.6-404.4-247.5z"/>
		<linearGradient id="SVGID_8_" gradientUnits="userSpaceOnUse" x1="-492.3091" y1="-155.6327" x2="-403.829" y2="-247.7995">
			<stop  offset="0" style="stop-color:#E61D72;stop-opacity:0"/>
			<stop  offset="0.1277" style="stop-color:#EC1E7F;stop-opacity:0.2207"/>
			<stop  offset="0.3304" style="stop-color:#F41F90;stop-opacity:0.5709"/>
			<stop  offset="0.3866" style="stop-color:#F62F7D;stop-opacity:0.607"/>
			<stop  offset="0.5031" style="stop-color:#F94C5B;stop-opacity:0.6816"/>
			<stop  offset="0.6222" style="stop-color:#FC6340;stop-opacity:0.758"/>
			<stop  offset="0.7433" style="stop-color:#FE732D;stop-opacity:0.8355"/>
			<stop  offset="0.8676" style="stop-color:#FF7D22;stop-opacity:0.9152"/>
			<stop  offset="1" style="stop-color:#FF801E"/>
		</linearGradient>
		<path fill="url(#SVGID_8_)" d="M-411.2-252.5c1.5,3,2.4,6.3,2.7,9.7c3.2,0.3,6.4,1.1,9.4,2.5c-1.2-2.5-2.8-4.8-4.8-6.9
			c0,0,0,0-0.1-0.1c-0.1-0.1-0.2-0.2-0.3-0.3C-406.5-249.6-408.8-251.2-411.2-252.5z"/>
		<linearGradient id="SVGID_9_" gradientUnits="userSpaceOnUse" x1="-536.6837" y1="-109.4091" x2="-403.6062" y2="-248.0315">
			<stop  offset="0" style="stop-color:#E61D72;stop-opacity:0"/>
			<stop  offset="0.1277" style="stop-color:#EC1E7F;stop-opacity:0.2207"/>
			<stop  offset="0.3304" style="stop-color:#F41F90;stop-opacity:0.5709"/>
			<stop  offset="0.3866" style="stop-color:#F62F7D;stop-opacity:0.607"/>
			<stop  offset="0.5031" style="stop-color:#F94C5B;stop-opacity:0.6816"/>
			<stop  offset="0.6222" style="stop-color:#FC6340;stop-opacity:0.758"/>
			<stop  offset="0.7433" style="stop-color:#FE732D;stop-opacity:0.8355"/>
			<stop  offset="0.8676" style="stop-color:#FF7D22;stop-opacity:0.9152"/>
			<stop  offset="1" style="stop-color:#FF801E"/>
		</linearGradient>
		<path fill="url(#SVGID_9_)" d="M-411.2-252.5c1.5,3,2.4,6.3,2.7,9.7c3.2,0.3,6.4,1.1,9.4,2.5c-1.2-2.5-2.8-4.8-4.8-6.9
			c0,0,0,0-0.1-0.1c-0.1-0.1-0.2-0.2-0.3-0.3C-406.5-249.6-408.8-251.2-411.2-252.5z"/>
		<linearGradient id="SVGID_10_" gradientUnits="userSpaceOnUse" x1="-468.2078" y1="-132.0023" x2="-379.7277" y2="-224.1691">
			<stop  offset="0" style="stop-color:#E61D72;stop-opacity:0"/>
			<stop  offset="0.1277" style="stop-color:#EC1E7F;stop-opacity:0.2207"/>
			<stop  offset="0.3304" style="stop-color:#F41F90;stop-opacity:0.5709"/>
			<stop  offset="0.3866" style="stop-color:#F62F7D;stop-opacity:0.607"/>
			<stop  offset="0.5031" style="stop-color:#F94C5B;stop-opacity:0.6816"/>
			<stop  offset="0.6222" style="stop-color:#FC6340;stop-opacity:0.758"/>
			<stop  offset="0.7433" style="stop-color:#FE732D;stop-opacity:0.8355"/>
			<stop  offset="0.8676" style="stop-color:#FF7D22;stop-opacity:0.9152"/>
			<stop  offset="1" style="stop-color:#FF801E"/>
		</linearGradient>
		<path fill="url(#SVGID_10_)" d="M-404.3-210.2l-63.8,63.8l0,0.1l-4.2,4.2c-7,7-7,18.3,0,25.3l0.1,0.1l0,0l12.3,12.3l0,0l-0.1-0.1
			c-7-7-7-18.3,0-25.3l4.2-4.2l0-0.1l63.8-63.8c5.9-5.9,8.4-13.9,7.5-21.7c-3.4-6.9-7.6-13.4-12.3-19.4c-0.8-0.5-1.6-1-2.5-1.4
			C-394.4-230.5-396.1-218.3-404.3-210.2z"/>
		<linearGradient id="SVGID_11_" gradientUnits="userSpaceOnUse" x1="-512.336" y1="-86.0354" x2="-379.2586" y2="-224.6577">
			<stop  offset="0" style="stop-color:#E61D72;stop-opacity:0"/>
			<stop  offset="0.1277" style="stop-color:#EC1E7F;stop-opacity:0.2207"/>
			<stop  offset="0.3304" style="stop-color:#F41F90;stop-opacity:0.5709"/>
			<stop  offset="0.3866" style="stop-color:#F62F7D;stop-opacity:0.607"/>
			<stop  offset="0.5031" style="stop-color:#F94C5B;stop-opacity:0.6816"/>
			<stop  offset="0.6222" style="stop-color:#FC6340;stop-opacity:0.758"/>
			<stop  offset="0.7433" style="stop-color:#FE732D;stop-opacity:0.8355"/>
			<stop  offset="0.8676" style="stop-color:#FF7D22;stop-opacity:0.9152"/>
			<stop  offset="1" style="stop-color:#FF801E"/>
		</linearGradient>
		<path fill="url(#SVGID_11_)" d="M-404.3-210.2l-63.8,63.8l0,0.1l-4.2,4.2c-7,7-7,18.3,0,25.3l0.1,0.1l0,0l12.3,12.3l0,0l-0.1-0.1
			c-7-7-7-18.3,0-25.3l4.2-4.2l0-0.1l63.8-63.8c5.9-5.9,8.4-13.9,7.5-21.7c-3.4-6.9-7.6-13.4-12.3-19.4c-0.8-0.5-1.6-1-2.5-1.4
			C-394.4-230.5-396.1-218.3-404.3-210.2z"/>
		<linearGradient id="SVGID_12_" gradientUnits="userSpaceOnUse" x1="-477.3141" y1="-141.2375" x2="-388.834" y2="-233.4043">
			<stop  offset="0" style="stop-color:#E61D72;stop-opacity:0"/>
			<stop  offset="0.1277" style="stop-color:#EC1E7F;stop-opacity:0.2207"/>
			<stop  offset="0.3304" style="stop-color:#F41F90;stop-opacity:0.5709"/>
			<stop  offset="0.3866" style="stop-color:#F62F7D;stop-opacity:0.607"/>
			<stop  offset="0.5031" style="stop-color:#F94C5B;stop-opacity:0.6816"/>
			<stop  offset="0.6222" style="stop-color:#FC6340;stop-opacity:0.758"/>
			<stop  offset="0.7433" style="stop-color:#FE732D;stop-opacity:0.8355"/>
			<stop  offset="0.8676" style="stop-color:#FF7D22;stop-opacity:0.9152"/>
			<stop  offset="1" style="stop-color:#FF801E"/>
		</linearGradient>
		<path fill="url(#SVGID_12_)" d="M-472.2-116.8c-7-7-7-18.3,0-25.3l4.2-4.2l0-0.1l63.8-63.8c8.1-8.1,9.9-20.3,5.1-30.1
			c-3-1.4-6.1-2.3-9.4-2.5c0.6,7.4-2,15.1-7.6,20.7l-63.8,63.8l0,0.1l-4.2,4.2c-7,7-7,18.3,0,25.3l0.1,0.1l0,0L-472.2-116.8
			L-472.2-116.8L-472.2-116.8z"/>
		<linearGradient id="SVGID_13_" gradientUnits="userSpaceOnUse" x1="-477.5604" y1="-140.9809" x2="-389.0804" y2="-233.1477">
			<stop  offset="0" style="stop-color:#E61D72;stop-opacity:0"/>
			<stop  offset="0.1277" style="stop-color:#EC1E7F;stop-opacity:0.2207"/>
			<stop  offset="0.3304" style="stop-color:#F41F90;stop-opacity:0.5709"/>
			<stop  offset="0.3866" style="stop-color:#F62F7D;stop-opacity:0.607"/>
			<stop  offset="0.5031" style="stop-color:#F94C5B;stop-opacity:0.6816"/>
			<stop  offset="0.6222" style="stop-color:#FC6340;stop-opacity:0.758"/>
			<stop  offset="0.7433" style="stop-color:#FE732D;stop-opacity:0.8355"/>
			<stop  offset="0.8676" style="stop-color:#FF7D22;stop-opacity:0.9152"/>
			<stop  offset="1" style="stop-color:#FF801E"/>
		</linearGradient>
		<path fill="url(#SVGID_13_)" d="M-472.2-116.8c-7-7-7-18.3,0-25.3l4.2-4.2l0-0.1l63.8-63.8c8.1-8.1,9.9-20.3,5.1-30.1
			c-3-1.4-6.1-2.3-9.4-2.5c0.6,7.4-2,15.1-7.6,20.7l-63.8,63.8l0,0.1l-4.2,4.2c-7,7-7,18.3,0,25.3l0.1,0.1l0,0L-472.2-116.8
			L-472.2-116.8L-472.2-116.8z"/>
		<linearGradient id="SVGID_14_" gradientUnits="userSpaceOnUse" x1="-521.6887" y1="-95.014" x2="-388.6113" y2="-233.6363">
			<stop  offset="0" style="stop-color:#E61D72;stop-opacity:0"/>
			<stop  offset="0.1277" style="stop-color:#EC1E7F;stop-opacity:0.2207"/>
			<stop  offset="0.3304" style="stop-color:#F41F90;stop-opacity:0.5709"/>
			<stop  offset="0.3866" style="stop-color:#F62F7D;stop-opacity:0.607"/>
			<stop  offset="0.5031" style="stop-color:#F94C5B;stop-opacity:0.6816"/>
			<stop  offset="0.6222" style="stop-color:#FC6340;stop-opacity:0.758"/>
			<stop  offset="0.7433" style="stop-color:#FE732D;stop-opacity:0.8355"/>
			<stop  offset="0.8676" style="stop-color:#FF7D22;stop-opacity:0.9152"/>
			<stop  offset="1" style="stop-color:#FF801E"/>
		</linearGradient>
		<path fill="url(#SVGID_14_)" d="M-472.2-116.8c-7-7-7-18.3,0-25.3l4.2-4.2l0-0.1l63.8-63.8c8.1-8.1,9.9-20.3,5.1-30.1
			c-3-1.4-6.1-2.3-9.4-2.5c0.6,7.4-2,15.1-7.6,20.7l-63.8,63.8l0,0.1l-4.2,4.2c-7,7-7,18.3,0,25.3l0.1,0.1l0,0L-472.2-116.8
			L-472.2-116.8L-472.2-116.8z"/>
		<linearGradient id="SVGID_15_" gradientUnits="userSpaceOnUse" x1="-499.6391" y1="-163.1457" x2="-411.1591" y2="-255.3124">
			<stop  offset="0" style="stop-color:#E61D72;stop-opacity:0"/>
			<stop  offset="0.1277" style="stop-color:#EC1E7F;stop-opacity:0.2207"/>
			<stop  offset="0.3304" style="stop-color:#F41F90;stop-opacity:0.5709"/>
			<stop  offset="0.3866" style="stop-color:#F62F7D;stop-opacity:0.607"/>
			<stop  offset="0.5031" style="stop-color:#F94C5B;stop-opacity:0.6816"/>
			<stop  offset="0.6222" style="stop-color:#FC6340;stop-opacity:0.758"/>
			<stop  offset="0.7433" style="stop-color:#FE732D;stop-opacity:0.8355"/>
			<stop  offset="0.8676" style="stop-color:#FF7D22;stop-opacity:0.9152"/>
			<stop  offset="1" style="stop-color:#FF801E"/>
		</linearGradient>
		<path fill="url(#SVGID_15_)" d="M-453.5-259.4l-62.1,62.1c-10.3,10.3-10.3,27,0,37.2l31.5,31.5l0,0l-19.6-19.6
			c-10.3-10.3-10.3-27,0-37.2l62.1-62.1c8.2-8.2,20.5-9.9,30.4-5c-0.4-0.9-0.9-1.8-1.5-2.6c-5.5-4.5-11.4-8.4-17.7-11.7
			C-438.5-268.1-447.2-265.7-453.5-259.4z"/>
		<linearGradient id="SVGID_16_" gradientUnits="userSpaceOnUse" x1="-544.2516" y1="-116.6744" x2="-411.1742" y2="-255.2967">
			<stop  offset="0" style="stop-color:#E61D72;stop-opacity:0"/>
			<stop  offset="0.1277" style="stop-color:#EC1E7F;stop-opacity:0.2207"/>
			<stop  offset="0.3304" style="stop-color:#F41F90;stop-opacity:0.5709"/>
			<stop  offset="0.3866" style="stop-color:#F62F7D;stop-opacity:0.607"/>
			<stop  offset="0.5031" style="stop-color:#F94C5B;stop-opacity:0.6816"/>
			<stop  offset="0.6222" style="stop-color:#FC6340;stop-opacity:0.758"/>
			<stop  offset="0.7433" style="stop-color:#FE732D;stop-opacity:0.8355"/>
			<stop  offset="0.8676" style="stop-color:#FF7D22;stop-opacity:0.9152"/>
			<stop  offset="1" style="stop-color:#FF801E"/>
		</linearGradient>
		<path fill="url(#SVGID_16_)" d="M-453.5-259.4l-62.1,62.1c-10.3,10.3-10.3,27,0,37.2l31.5,31.5l0,0l-19.6-19.6
			c-10.3-10.3-10.3-27,0-37.2l62.1-62.1c8.2-8.2,20.5-9.9,30.4-5c-0.4-0.9-0.9-1.8-1.5-2.6c-5.5-4.5-11.4-8.4-17.7-11.7
			C-438.5-268.1-447.2-265.7-453.5-259.4z"/>
		<linearGradient id="SVGID_17_" gradientUnits="userSpaceOnUse" x1="-493.8067" y1="-157.0704" x2="-405.3266" y2="-249.2372">
			<stop  offset="0" style="stop-color:#E61D72;stop-opacity:0"/>
			<stop  offset="0.1277" style="stop-color:#EC1E7F;stop-opacity:0.2207"/>
			<stop  offset="0.3304" style="stop-color:#F41F90;stop-opacity:0.5709"/>
			<stop  offset="0.3866" style="stop-color:#F62F7D;stop-opacity:0.607"/>
			<stop  offset="0.5031" style="stop-color:#F94C5B;stop-opacity:0.6816"/>
			<stop  offset="0.6222" style="stop-color:#FC6340;stop-opacity:0.758"/>
			<stop  offset="0.7433" style="stop-color:#FE732D;stop-opacity:0.8355"/>
			<stop  offset="0.8676" style="stop-color:#FF7D22;stop-opacity:0.9152"/>
			<stop  offset="1" style="stop-color:#FF801E"/>
		</linearGradient>
		<path fill="url(#SVGID_17_)" d="M-491.3-135.9c-10.3-10.3-10.3-27,0-37.2l62.1-62.1c5.7-5.7,13.3-8.2,20.7-7.6
			c-0.3-3.3-1.2-6.6-2.7-9.7c-9.8-4.9-22.2-3.2-30.4,5l-62.1,62.1c-10.3,10.3-10.3,27,0,37.2l19.6,19.6v0L-491.3-135.9z"/>
		<linearGradient id="SVGID_18_" gradientUnits="userSpaceOnUse" x1="-493.5688" y1="-157.3182" x2="-405.0887" y2="-249.485">
			<stop  offset="0" style="stop-color:#E61D72;stop-opacity:0"/>
			<stop  offset="0.1277" style="stop-color:#EC1E7F;stop-opacity:0.2207"/>
			<stop  offset="0.3304" style="stop-color:#F41F90;stop-opacity:0.5709"/>
			<stop  offset="0.3866" style="stop-color:#F62F7D;stop-opacity:0.607"/>
			<stop  offset="0.5031" style="stop-color:#F94C5B;stop-opacity:0.6816"/>
			<stop  offset="0.6222" style="stop-color:#FC6340;stop-opacity:0.758"/>
			<stop  offset="0.7433" style="stop-color:#FE732D;stop-opacity:0.8355"/>
			<stop  offset="0.8676" style="stop-color:#FF7D22;stop-opacity:0.9152"/>
			<stop  offset="1" style="stop-color:#FF801E"/>
		</linearGradient>
		<path fill="url(#SVGID_18_)" d="M-491.3-135.9c-10.3-10.3-10.3-27,0-37.2l62.1-62.1c5.7-5.7,13.3-8.2,20.7-7.6
			c-0.3-3.3-1.2-6.6-2.7-9.7c-9.8-4.9-22.2-3.2-30.4,5l-62.1,62.1c-10.3,10.3-10.3,27,0,37.2l19.6,19.6v0L-491.3-135.9z"/>
		<linearGradient id="SVGID_19_" gradientUnits="userSpaceOnUse" x1="-538.1813" y1="-110.8469" x2="-405.1039" y2="-249.4692">
			<stop  offset="0" style="stop-color:#E61D72;stop-opacity:0"/>
			<stop  offset="0.1277" style="stop-color:#EC1E7F;stop-opacity:0.2207"/>
			<stop  offset="0.3304" style="stop-color:#F41F90;stop-opacity:0.5709"/>
			<stop  offset="0.3866" style="stop-color:#F62F7D;stop-opacity:0.607"/>
			<stop  offset="0.5031" style="stop-color:#F94C5B;stop-opacity:0.6816"/>
			<stop  offset="0.6222" style="stop-color:#FC6340;stop-opacity:0.758"/>
			<stop  offset="0.7433" style="stop-color:#FE732D;stop-opacity:0.8355"/>
			<stop  offset="0.8676" style="stop-color:#FF7D22;stop-opacity:0.9152"/>
			<stop  offset="1" style="stop-color:#FF801E"/>
		</linearGradient>
		<path fill="url(#SVGID_19_)" d="M-491.3-135.9c-10.3-10.3-10.3-27,0-37.2l62.1-62.1c5.7-5.7,13.3-8.2,20.7-7.6
			c-0.3-3.3-1.2-6.6-2.7-9.7c-9.8-4.9-22.2-3.2-30.4,5l-62.1,62.1c-10.3,10.3-10.3,27,0,37.2l19.6,19.6v0L-491.3-135.9z"/>
		<linearGradient id="SVGID_20_" gradientUnits="userSpaceOnUse" x1="-487.5196" y1="-151.0348" x2="-399.0395" y2="-243.2016">
			<stop  offset="0" style="stop-color:#E61D72;stop-opacity:0"/>
			<stop  offset="0.1277" style="stop-color:#EC1E7F;stop-opacity:0.2207"/>
			<stop  offset="0.3304" style="stop-color:#F41F90;stop-opacity:0.5709"/>
			<stop  offset="0.3866" style="stop-color:#F62F7D;stop-opacity:0.607"/>
			<stop  offset="0.5031" style="stop-color:#F94C5B;stop-opacity:0.6816"/>
			<stop  offset="0.6222" style="stop-color:#FC6340;stop-opacity:0.758"/>
			<stop  offset="0.7433" style="stop-color:#FE732D;stop-opacity:0.8355"/>
			<stop  offset="0.8676" style="stop-color:#FF7D22;stop-opacity:0.9152"/>
			<stop  offset="1" style="stop-color:#FF801E"/>
		</linearGradient>
		<path fill="url(#SVGID_20_)" d="M-429.3-235.2l-62.1,62.1c-10.3,10.3-10.3,27,0,37.2l7.3,7.3l0,0l-0.1-0.1c-7-7-7-18.3,0-25.3
			l4.2-4.2l0-0.1l63.8-63.8c5.7-5.7,8.2-13.3,7.6-20.7C-416-243.4-423.6-240.8-429.3-235.2z"/>
		<linearGradient id="SVGID_21_" gradientUnits="userSpaceOnUse" x1="-487.766" y1="-150.7782" x2="-399.2859" y2="-242.945">
			<stop  offset="0" style="stop-color:#E61D72;stop-opacity:0"/>
			<stop  offset="0.1277" style="stop-color:#EC1E7F;stop-opacity:0.2207"/>
			<stop  offset="0.3304" style="stop-color:#F41F90;stop-opacity:0.5709"/>
			<stop  offset="0.3866" style="stop-color:#F62F7D;stop-opacity:0.607"/>
			<stop  offset="0.5031" style="stop-color:#F94C5B;stop-opacity:0.6816"/>
			<stop  offset="0.6222" style="stop-color:#FC6340;stop-opacity:0.758"/>
			<stop  offset="0.7433" style="stop-color:#FE732D;stop-opacity:0.8355"/>
			<stop  offset="0.8676" style="stop-color:#FF7D22;stop-opacity:0.9152"/>
			<stop  offset="1" style="stop-color:#FF801E"/>
		</linearGradient>
		<path fill="url(#SVGID_21_)" d="M-429.3-235.2l-62.1,62.1c-10.3,10.3-10.3,27,0,37.2l7.3,7.3l0,0l-0.1-0.1c-7-7-7-18.3,0-25.3
			l4.2-4.2l0-0.1l63.8-63.8c5.7-5.7,8.2-13.3,7.6-20.7C-416-243.4-423.6-240.8-429.3-235.2z"/>
		<linearGradient id="SVGID_22_" gradientUnits="userSpaceOnUse" x1="-487.2818" y1="-151.2826" x2="-398.8017" y2="-243.4494">
			<stop  offset="0" style="stop-color:#E61D72;stop-opacity:0"/>
			<stop  offset="0.1277" style="stop-color:#EC1E7F;stop-opacity:0.2207"/>
			<stop  offset="0.3304" style="stop-color:#F41F90;stop-opacity:0.5709"/>
			<stop  offset="0.3866" style="stop-color:#F62F7D;stop-opacity:0.607"/>
			<stop  offset="0.5031" style="stop-color:#F94C5B;stop-opacity:0.6816"/>
			<stop  offset="0.6222" style="stop-color:#FC6340;stop-opacity:0.758"/>
			<stop  offset="0.7433" style="stop-color:#FE732D;stop-opacity:0.8355"/>
			<stop  offset="0.8676" style="stop-color:#FF7D22;stop-opacity:0.9152"/>
			<stop  offset="1" style="stop-color:#FF801E"/>
		</linearGradient>
		<path fill="url(#SVGID_22_)" d="M-429.3-235.2l-62.1,62.1c-10.3,10.3-10.3,27,0,37.2l7.3,7.3l0,0l-0.1-0.1c-7-7-7-18.3,0-25.3
			l4.2-4.2l0-0.1l63.8-63.8c5.7-5.7,8.2-13.3,7.6-20.7C-416-243.4-423.6-240.8-429.3-235.2z"/>
		<linearGradient id="SVGID_23_" gradientUnits="userSpaceOnUse" x1="-531.8942" y1="-104.8113" x2="-398.8168" y2="-243.4336">
			<stop  offset="0" style="stop-color:#E61D72;stop-opacity:0"/>
			<stop  offset="0.1277" style="stop-color:#EC1E7F;stop-opacity:0.2207"/>
			<stop  offset="0.3304" style="stop-color:#F41F90;stop-opacity:0.5709"/>
			<stop  offset="0.3866" style="stop-color:#F62F7D;stop-opacity:0.607"/>
			<stop  offset="0.5031" style="stop-color:#F94C5B;stop-opacity:0.6816"/>
			<stop  offset="0.6222" style="stop-color:#FC6340;stop-opacity:0.758"/>
			<stop  offset="0.7433" style="stop-color:#FE732D;stop-opacity:0.8355"/>
			<stop  offset="0.8676" style="stop-color:#FF7D22;stop-opacity:0.9152"/>
			<stop  offset="1" style="stop-color:#FF801E"/>
		</linearGradient>
		<path fill="url(#SVGID_23_)" d="M-429.3-235.2l-62.1,62.1c-10.3,10.3-10.3,27,0,37.2l7.3,7.3l0,0l-0.1-0.1c-7-7-7-18.3,0-25.3
			l4.2-4.2l0-0.1l63.8-63.8c5.7-5.7,8.2-13.3,7.6-20.7C-416-243.4-423.6-240.8-429.3-235.2z"/>
	</g>
	<linearGradient id="SVGID_24_" gradientUnits="userSpaceOnUse" x1="-183.8391" y1="-183.0343" x2="-99.4352" y2="-270.955">
		<stop  offset="0" style="stop-color:#E61D72;stop-opacity:0"/>
		<stop  offset="0.1277" style="stop-color:#EC1E7F;stop-opacity:0.2207"/>
		<stop  offset="0.3304" style="stop-color:#F41F90;stop-opacity:0.5709"/>
		<stop  offset="0.3866" style="stop-color:#F62F7D;stop-opacity:0.607"/>
		<stop  offset="0.5031" style="stop-color:#F94C5B;stop-opacity:0.6816"/>
		<stop  offset="0.6222" style="stop-color:#FC6340;stop-opacity:0.758"/>
		<stop  offset="0.7433" style="stop-color:#FE732D;stop-opacity:0.8355"/>
		<stop  offset="0.8676" style="stop-color:#FF7D22;stop-opacity:0.9152"/>
		<stop  offset="1" style="stop-color:#FF801E"/>
	</linearGradient>
	<path fill="url(#SVGID_24_)" d="M-141.6-150L-141.6-150c-10.7,0-19.3-8.7-19.3-19.3v-115.3c0-10.7,8.7-19.3,19.3-19.3h0
		c10.7,0,19.3,8.7,19.3,19.3v115.3C-122.3-158.6-131-150-141.6-150z"/>
	<circle fill="#FFFFFF" cx="-49" cy="-53.2" r="13.5"/>
	
		<line fill="none" stroke="#FFFFFF" stroke-width="3" stroke-linecap="round" stroke-miterlimit="10" x1="-72.5" y1="-67" x2="-72.5" y2="-40"/>
	<path fill="#FFFFFF" d="M62.6,41.8c-0.2,3.4-0.5,12.9,2.7,18.2c5-9.3,8.1-1.9,7.9,7.3c-0.1,3.4,3.8,1.7,3.8,1.7
		c1.3-1.9,2.4-4,3.3-6.3c6.3-16.6-2-35.1-18.6-41.4c-16.6-6.3-35.1,2-41.4,18.6c-0.5,1.3-0.8,2.5-1.1,3.8
		C19.4,43.7,54.3,49.5,62.6,41.8z"/>
	<polyline fill="none" stroke="#FFFFFF" stroke-width="4.2348" stroke-linecap="round" stroke-miterlimit="10" points="32,51.3 
		30.4,63.3 36.3,64.4 	"/>
	<path fill="#FFFFFF" d="M-91.2,27.2v-2.4c0-0.4,0.4-0.8,0.8-0.8h70.7c0.4,0,0.8,0.4,0.8,0.8v2.4"/>
	<linearGradient id="SVGID_25_" gradientUnits="userSpaceOnUse" x1="-83.4361" y1="79.0171" x2="-26.5639" y2="19.7752">
		<stop  offset="0" style="stop-color:#E61D72;stop-opacity:0"/>
		<stop  offset="0.1277" style="stop-color:#EC1E7F;stop-opacity:0.2207"/>
		<stop  offset="0.3304" style="stop-color:#F41F90;stop-opacity:0.5709"/>
		<stop  offset="0.3866" style="stop-color:#F62F7D;stop-opacity:0.607"/>
		<stop  offset="0.5031" style="stop-color:#F94C5B;stop-opacity:0.6816"/>
		<stop  offset="0.6222" style="stop-color:#FC6340;stop-opacity:0.758"/>
		<stop  offset="0.7433" style="stop-color:#FE732D;stop-opacity:0.8355"/>
		<stop  offset="0.8676" style="stop-color:#FF7D22;stop-opacity:0.9152"/>
		<stop  offset="1" style="stop-color:#FF801E"/>
	</linearGradient>
	<rect x="-91.2" y="27.2" fill="url(#SVGID_25_)" width="72.4" height="44.4"/>
	<g>
		<path fill="#FFFFFF" d="M-85.3,33.3c-0.3-0.2-0.4-0.5-0.4-0.7c0-0.2,0-0.4,0.1-0.5c0.1-0.3,0.5-0.6,0.8-0.6c0.1,0,0.3,0,0.5,0.1
			l8.9,5.3c0.6,0.4,0.9,0.7,0.9,1.4c0,0.7-0.3,1-0.9,1.3l-8.9,5.4c-0.1,0.1-0.3,0.1-0.4,0.1c-0.4,0-0.7-0.3-0.8-0.6
			c-0.1-0.2-0.1-0.4-0.1-0.5c0-0.3,0.1-0.6,0.4-0.7l8.5-5L-85.3,33.3z"/>
		<path fill="#FFFFFF" d="M-61.3,47.4v1.3h-12.1v-1.3H-61.3z"/>
	</g>
</g>
<g id="Layer_3">
	<g>
		
			<linearGradient id="SVGID_26_" gradientUnits="userSpaceOnUse" x1="28.5891" y1="-35.1874" x2="57.5933" y2="-65.4002" gradientTransform="matrix(0.7071 0.7071 -0.7071 0.7071 -23.4829 -48.376)">
			<stop  offset="0" style="stop-color:#E61D72;stop-opacity:0"/>
			<stop  offset="0.1277" style="stop-color:#EC1E7F;stop-opacity:0.2207"/>
			<stop  offset="0.3304" style="stop-color:#F41F90;stop-opacity:0.5709"/>
			<stop  offset="0.3866" style="stop-color:#F62F7D;stop-opacity:0.607"/>
			<stop  offset="0.5031" style="stop-color:#F94C5B;stop-opacity:0.6816"/>
			<stop  offset="0.6222" style="stop-color:#FC6340;stop-opacity:0.758"/>
			<stop  offset="0.7433" style="stop-color:#FE732D;stop-opacity:0.8355"/>
			<stop  offset="0.8676" style="stop-color:#FF7D22;stop-opacity:0.9152"/>
			<stop  offset="1" style="stop-color:#FF801E"/>
		</linearGradient>
		<polygon fill="url(#SVGID_26_)" points="62.1,-67.2 63.1,-71.2 60.2,-74.1 56.3,-72.9 23.1,-39.7 22,-35.8 24.9,-32.9 28.9,-34 		
			"/>
		
			<linearGradient id="SVGID_27_" gradientUnits="userSpaceOnUse" x1="41.9851" y1="-68.4312" x2="43.9109" y2="-70.4372" gradientTransform="matrix(0.7071 0.7071 -0.7071 0.7071 -23.4829 -48.376)">
			<stop  offset="0" style="stop-color:#E61D72;stop-opacity:0"/>
			<stop  offset="0.1277" style="stop-color:#EC1E7F;stop-opacity:0.2207"/>
			<stop  offset="0.3304" style="stop-color:#F41F90;stop-opacity:0.5709"/>
			<stop  offset="0.3866" style="stop-color:#F62F7D;stop-opacity:0.607"/>
			<stop  offset="0.5031" style="stop-color:#F94C5B;stop-opacity:0.6816"/>
			<stop  offset="0.6222" style="stop-color:#FC6340;stop-opacity:0.758"/>
			<stop  offset="0.7433" style="stop-color:#FE732D;stop-opacity:0.8355"/>
			<stop  offset="0.8676" style="stop-color:#FF7D22;stop-opacity:0.9152"/>
			<stop  offset="1" style="stop-color:#FF801E"/>
		</linearGradient>
		<line fill="url(#SVGID_27_)" x1="57.4" y1="-65.7" x2="54.6" y2="-68.5"/>
		
			<linearGradient id="SVGID_28_" gradientUnits="userSpaceOnUse" x1="45.1604" y1="-69.5197" x2="45.1604" y2="-69.5197" gradientTransform="matrix(0.7071 0.7071 -0.7071 0.7071 -23.4829 -48.376)">
			<stop  offset="0" style="stop-color:#E61D72;stop-opacity:0"/>
			<stop  offset="0.1277" style="stop-color:#EC1E7F;stop-opacity:0.2207"/>
			<stop  offset="0.3304" style="stop-color:#F41F90;stop-opacity:0.5709"/>
			<stop  offset="0.3866" style="stop-color:#F62F7D;stop-opacity:0.607"/>
			<stop  offset="0.5031" style="stop-color:#F94C5B;stop-opacity:0.6816"/>
			<stop  offset="0.6222" style="stop-color:#FC6340;stop-opacity:0.758"/>
			<stop  offset="0.7433" style="stop-color:#FE732D;stop-opacity:0.8355"/>
			<stop  offset="0.8676" style="stop-color:#FF7D22;stop-opacity:0.9152"/>
			<stop  offset="1" style="stop-color:#FF801E"/>
		</linearGradient>
		<path fill="url(#SVGID_28_)" d="M57.6-65.6"/>
		
			<linearGradient id="SVGID_29_" gradientUnits="userSpaceOnUse" x1="30.4865" y1="-33.5634" x2="55.8487" y2="-59.9823" gradientTransform="matrix(0.7071 0.7071 -0.7071 0.7071 -23.4829 -48.376)">
			<stop  offset="0" style="stop-color:#E61D72;stop-opacity:0"/>
			<stop  offset="0.1277" style="stop-color:#EC1E7F;stop-opacity:0.2207"/>
			<stop  offset="0.3304" style="stop-color:#F41F90;stop-opacity:0.5709"/>
			<stop  offset="0.3866" style="stop-color:#F62F7D;stop-opacity:0.607"/>
			<stop  offset="0.5031" style="stop-color:#F94C5B;stop-opacity:0.6816"/>
			<stop  offset="0.6222" style="stop-color:#FC6340;stop-opacity:0.758"/>
			<stop  offset="0.7433" style="stop-color:#FE732D;stop-opacity:0.8355"/>
			<stop  offset="0.8676" style="stop-color:#FF7D22;stop-opacity:0.9152"/>
			<stop  offset="1" style="stop-color:#FF801E"/>
		</linearGradient>
		<polyline fill="url(#SVGID_29_)" points="25,-32.8 58.1,-66.1 55.2,-69 22.1,-35.7 		"/>
		<path fill="#212121" d="M70.8-80.9l1.3-2.1L70-81.7c0.1,0.1,0.3,0.2,0.4,0.4C70.5-81.2,70.7-81,70.8-80.9z"/>
		<path fill="#FFFFFF" d="M64.6-75.5c-0.6-0.6-0.9-1.3-1.1-2L56.3-73l-1.1,4l2.9,2.9l4-1.1l4.6-7.2C65.9-74.6,65.2-74.9,64.6-75.5z"
			/>
		<path fill="#212121" d="M66.7-74.4l4.1-6.5c-0.1-0.1-0.2-0.3-0.4-0.4c-0.1-0.1-0.3-0.2-0.4-0.4l-6.5,4.1c-0.7,0.7-0.2,2.2,0.4,2.8
			C64.5-74.2,66.1-73.6,66.7-74.4z"/>
	</g>
</g>
</svg>
