<?xml version="1.0" encoding="utf-8"?>
<!-- Generator: Adobe Illustrator 18.0.0, SVG Export Plug-In . SVG Version: 6.00 Build 0)  -->
<!DOCTYPE svg PUBLIC "-//W3C//DTD SVG 1.1//EN" "http://www.w3.org/Graphics/SVG/1.1/DTD/svg11.dtd">
<svg version="1.1" id="Layer_1" xmlns="http://www.w3.org/2000/svg" xmlns:xlink="http://www.w3.org/1999/xlink" x="0px" y="0px"
	 viewBox="0 0 500 500" enable-background="new 0 0 500 500" xml:space="preserve">
<rect x="268.9" y="169.4" fill="none" width="2.5" height="4.9"/>
<path d="M221.3,230.9"/>
<linearGradient id="SVGID_1_" gradientUnits="userSpaceOnUse" x1="111.9414" y1="250" x2="500" y2="250">
	<stop  offset="0" style="stop-color:#FF7B00"/>
	<stop  offset="0.4374" style="stop-color:#FF7B51"/>
	<stop  offset="0.8205" style="stop-color:#FF7B93"/>
	<stop  offset="1" style="stop-color:#FF7BAC"/>
</linearGradient>
<polygon fill="url(#SVGID_1_)" points="500,0 363.6,0 111.9,226.3 378.6,500 500,500 "/>
<polygon points="306.6,504 382.8,504 378.6,500 302.6,500 "/>
<polygon points="51,0 52,0 52,-4 0,-4 0,504 52,504 52,500 51,500 "/>
<polygon points="368.4,-4 294.4,-4 289.9,0 363.6,0 "/>
<polygon points="363.6,0 289.9,0 52.3,224 52,224 52,0 51,0 51,500 52,500 52,233 52.3,233 302.6,500 378.6,500 111.9,226.3 "/>
</svg>
