<?xml version="1.0" encoding="UTF-8"?>
<svg id="Layer_1" data-name="Layer 1" xmlns="http://www.w3.org/2000/svg" version="1.1" viewBox="0 0 800 800">
  <defs>
    <style>
      .cls-1 {
        fill: #151515;
        stroke-width: 0px;
      }
    </style>
  </defs>
  <path class="cls-1" d="M342.53,1322.19h0c2.96,30.09,16.77,56.73,37,75.96,20.72,19.24,48.34,31.08,78.43,31.08h268.84s0,93.72,0,93.72h-269.33c-63.14,0-122.33-28.61-162.78-77.45-39.46,48.83-99.15,77.45-162.29,77.45h-59.19s0-93.72,0-93.72h58.21c60.67,0,110.99-46.86,115.92-107.04h95.21Z"/>
  <path class="cls-1" d="M619.76,1813.5h0c30.09-2.96,56.73-16.77,75.96-36.99,19.24-20.72,31.08-48.34,31.08-78.43v-268.84s93.72,0,93.72,0v269.33c0,63.14-28.61,122.33-77.45,162.78,48.83,39.46,77.45,99.15,77.45,162.29v59.19s-93.72,0-93.72,0v-58.21c0-60.67-46.86-110.99-107.04-115.92v-95.21Z"/>
  <path class="cls-1" d="M551.19,2283.59h0c-2.96-30.09-16.77-56.73-37-75.96-20.72-19.24-48.34-31.08-78.43-31.08H166.92s0-93.72,0-93.72h269.33c63.14,0,122.33,28.61,162.78,77.45,39.46-48.83,99.15-77.45,162.29-77.45h59.19s0,93.72,0,93.72h-58.21c-60.67,0-110.99,46.86-115.92,107.04h-95.21Z"/>
  <path class="cls-1" d="M273.97,1792.29h0c-30.09,2.96-56.73,16.77-75.96,36.99-19.24,20.72-31.08,48.34-31.08,78.43v268.84s-93.72,0-93.72,0v-269.33c0-63.14,28.61-122.33,77.45-162.78-48.83-39.46-77.45-99.15-77.45-162.29v-59.19s93.72,0,93.72,0v58.21c0,60.67,46.86,110.99,107.04,115.92v95.21Z"/>
  <path class="cls-1" d="M2618.14,570.67c0,63.14-28.61,122.33-77.45,162.78,48.83,39.46,77.45,99.15,77.45,162.29v59.19s-93.72,0-93.72,0v-58.21c0-60.67-46.86-110.99-107.04-115.92v174.13s-93.23,0-93.23,0l-.49-269.33v.98c0-60.68-46.86-110.99-107.04-115.92v384.27s-93.73,0-93.73,0V301.33s93.73,0,93.73,0v174.62c60.18-5.43,107.04-55.74,107.04-115.92v-58.7s93.72,0,93.72,0v59.19c0,63.14-28.61,122.34-77.94,162.79,49.33,39.46,77.94,99.15,77.94,162.29h0c30.09-2.96,56.73-16.77,75.96-36.99,19.24-20.72,31.08-48.34,31.08-78.43v-268.84s93.72,0,93.72,0v269.33Z"/>
  <path class="cls-1" d="M367.18,400.91l3.66,1.83c47.53,31.99,99.63,54.84,155.39,67.64l20.11,4.57c13.71,2.74,15.54,5.48,19.19,8.23v140.76c-103.29-17.37-203.83-49.36-246.79-79.52-67.64-47.53-135.28-95.97-202.92-144.42,67.64-48.44,134.36-95.97,202.92-143.5,42.96-30.16,143.5-63.07,246.79-80.44v143.5c-2.74.91-9.14,3.66-19.19,6.4l-20.11,4.57c-55.76,12.8-107.86,35.65-155.39,67.64-.91.91-2.74,1.83-3.66,2.74Z"/>
</svg>