<?xml version="1.0" encoding="utf-8"?>
<!-- Generator: Adobe Illustrator 18.0.0, SVG Export Plug-In . SVG Version: 6.00 Build 0)  -->
<!DOCTYPE svg PUBLIC "-//W3C//DTD SVG 1.1//EN" "http://www.w3.org/Graphics/SVG/1.1/DTD/svg11.dtd">
<svg version="1.1" id="Layer_1" xmlns="http://www.w3.org/2000/svg" xmlns:xlink="http://www.w3.org/1999/xlink" x="0px" y="0px"
	  enable-background="new 0 0 1000 300" xml:space="preserve">
<path d="M1046,169H942v9h-25.5l12.5,53h-21.3l-3.7-16h-52.2l-9-51.3l1.4,51.3h-1.4l1.6,6.7L845,241h-19v-27h-61v65h-29v-1h12v-70h6
	v-21h-6v-5h6v-20h-6v-5h6v-21h-6v-5h6v-20h-6V94H644v17h-7v20h7v5h-7v21h7v5h-7v20h7v5h-7v9h-40v-5h-23v-25h-61v53h-12v-16h-61v-17
	h-8v-55h-32v-26h-62v64h-28v-58h-35v119h-26v-33h-13v-54h-55v-27H76v64H27v-58h-60v216H6v25h84.3L233,398.7V413h57l104,26v8h38v26
	h104v-64h22v27h69v5h22v15h11v67h104v-61h21v-64h12v27h53l1,19.8V425h7v-84.8l34.1-26.4l6.3,26.2H942v12h51.1l5.2,14.6L996,352h50
	V169z M858,329.5V302l5.1-0.5L866,313h3.6L858,329.5z"/>
</svg>
