<?xml version="1.0" encoding="utf-8"?>
<!-- Generator: Adobe Illustrator 18.0.0, SVG Export Plug-In . SVG Version: 6.00 Build 0)  -->
<!DOCTYPE svg PUBLIC "-//W3C//DTD SVG 1.1//EN" "http://www.w3.org/Graphics/SVG/1.1/DTD/svg11.dtd">
<svg version="1.1" id="Layer_1" xmlns="http://www.w3.org/2000/svg" xmlns:xlink="http://www.w3.org/1999/xlink" x="0px" y="0px"
	  enable-background="new 0 0 1000 300" xml:space="preserve">
<polyline points="1000,300 644.5,300 -3,300 0.3,221 8.8,221 8.8,225 16.4,225 16.4,221 22.8,221 22.8,223 34.1,223 34.1,219.2 
	41.1,219.2 41.1,222.1 56,222.1 56,226.5 59.1,226.5 63.4,226.5 63.4,222.9 67,222.9 69.1,222.9 69.1,219.2 72.2,219.2 72.2,222.9 
	74.3,222.9 74.3,224.7 90.8,224.7 90.8,213.7 93.5,212.2 93.5,205.8 98.1,205.8 98.1,211.6 100.8,213.4 100.8,222.3 103.3,222.3 
	104.2,207.5 104.9,213.3 108.2,189.3 112.2,213.1 112.8,207.9 113.5,221.2 119.9,221.2 119.9,226.5 127.2,226.5 129.6,224.1 
	138.2,224.1 138.2,226.5 140.5,228.8 143.7,228.8 143.7,226.2 168.3,226.2 168.3,223.8 174.8,223.8 174.8,225.9 178.5,225.9 
	178.5,228.8 185.3,228.8 185.3,226.7 196.2,226.7 196.2,228.8 200.7,228.8 200.7,221.2 204.9,221.2 204.9,227.5 212.2,227.5 
	212.2,221.2 219,221.2 219,227.2 236.8,227.2 236.8,221.2 239.7,221.2 239.7,225.9 243.1,225.9 247.4,221.6 249.6,223.8 
	256.1,223.8 256.1,227.2 263.2,227.2 263.2,225.4 267.1,225.4 268.8,227.1 268.8,209 271,206.6 273.1,173.6 275.2,206 277.1,209.7 
	277.1,223.3 280.7,222.5 282.3,224.9 302.7,225.1 309,223.6 309,213.6 310.5,210.7 310.5,205 316.3,205 316.3,210 317.3,213.4 
	317.3,222 330.4,222 330.4,223.8 345.9,223.8 352.1,226.4 367.8,226.4 370.6,223.7 394,223.7 404.2,228.8 412,228.8 412,233.5 
	414.6,236.1 417.8,241.3 417.8,252.3 425.1,252.3 434.3,267.9 "/>
</svg>
