<?xml version="1.0" encoding="utf-8"?>
<!-- Generator: Adobe Illustrator 18.0.0, SVG Export Plug-In . SVG Version: 6.00 Build 0)  -->
<!DOCTYPE svg PUBLIC "-//W3C//DTD SVG 1.1//EN" "http://www.w3.org/Graphics/SVG/1.1/DTD/svg11.dtd">
<svg version="1.1" id="Layer_1" xmlns="http://www.w3.org/2000/svg" xmlns:xlink="http://www.w3.org/1999/xlink" x="0px" y="0px"
	  enable-background="new 0 0 1000 300" xml:space="preserve">
<polygon fill="#DDDDDD" points="777.1,124.8 795.8,112.6 807,100.5 817.6,88.3 837.9,89.5 842.7,87.5 852.5,97.4 875.7,117.4 
	887,123.9 910.5,148 868.3,159.7 860.9,155.6 841,163.3 822,184.4 754.5,147.4 770.4,129.1 "/>
<polyline fill="#EDEDED" points="817.6,88.3 807,100.5 795.8,112.6 777.1,124.8 770.4,129.1 754.5,147.4 830.8,184.4 832.5,92.7 "/>
<polygon fill="#E9F8FF" points="777.1,124.8 795.8,112.6 807,100.5 817.6,88.3 837.9,89.5 842.7,87.5 852.5,97.4 875.7,117.4 
	887,123.9 850.9,124 839.5,121 831.8,128.1 822.5,122.9 810.8,126.9 793.9,125.8 770.4,129.1 "/>
<polygon fill="#B5B5B5" points="731,157.5 731,139 719,139 719,177 712,177 712,161 707.6,161 703,165.9 703,197 691,197 691,204 
	687,204 687,209 680,209 680,256 737.8,256 "/>
<polygon fill="#B5B5B5" points="1010,116.3 1010,98 998,98 998,135 991,135 991,120 986.9,120 982,124.6 982,155 971,155 971,163 
	966,163 966,168 960,168 960,215 1000,255.1 "/>
<polygon fill="#656666" points="727.7,196 719,196 719,203 709,203 709,230 703,230 703,213 690,213 690,234 682,234 682,242 
	670,242 670,256 725,256 "/>
<polygon fill="#FFFFFF" points="928.9,17.5 931.5,17.5 931.5,28.7 933.4,32.7 931.5,35.3 931.5,57 935.2,58.3 931.5,70.1 
	935.2,138.9 919.4,138.9 923,70.1 919.4,58.3 923,57 923,35.3 921.2,32.7 923,28.7 923,17.5 925.6,17.5 925.6,-20.9 924.3,-25.5 
	927.3,-25.5 930.2,-25.5 928.9,-20.9 "/>
<polygon fill="#B5B5B5" points="729.9,147 741.9,147 741.9,143.2 757.6,143.2 757.6,138.1 787.5,138.1 792.8,138.1 792.8,144.9 
	841.7,144.9 841.7,133.6 845.6,133.6 845.6,131.3 848.5,131.3 848.5,128.8 855.8,128.8 855.8,134 862.8,134 876.2,134 876.2,127.6 
	893.5,127.6 894.5,97.7 897.6,97.7 897.6,127.6 900.9,130.1 900.9,124.5 908.6,124.5 908.6,128 911,128 911,124.3 914.8,124.3 
	914.8,127 928.4,127 945.6,125.4 945.6,195.6 721.9,195.6 "/>
<polygon fill="#656666" points="721.9,216.5 721.9,177.5 730.7,177.5 730.7,187.1 740.7,187.1 740.7,181.2 751.3,181.2 751.3,174.7 
	760.3,174.7 760.3,211.1 "/>
<polygon fill="#656666" points="757.5,211.3 757.5,172.3 769.5,172.3 769.5,181.9 783.1,181.9 783.1,175.9 797.5,175.9 797.5,169.5 
	809.8,169.5 809.8,205.9 "/>
<polygon fill="#656666" points="941,260.8 941,155.7 953,155.7 953,181.4 966.7,181.4 966.7,165.4 981.1,165.4 981.1,148 993.4,148 
	993.4,246.2 "/>
<polygon fill="#303030" points="841,288.5 841,138.9 800.2,138.9 800.2,142.3 794.3,142.3 794.3,184.1 768.1,184.1 768.1,200.1 
	721.9,200.1 721.9,263.3 "/>
<polygon fill="#303030" points="732.3,209 714,209 714,233 706,233 706,240 690,240 690,257 735,257 "/>
<rect x="721.9" y="143.2" fill="#FFFFFF" width="5.6" height="5.6"/>
<rect x="721.9" y="150" fill="#FFFFFF" width="5.6" height="5.6"/>
<rect x="721.9" y="156.7" fill="#FFFFFF" width="5.6" height="5.6"/>
<rect x="721.9" y="163.4" fill="#FFFFFF" width="5.6" height="5.6"/>
<rect x="797" y="175.7" fill="#DB896B" width="5.1" height="5.1"/>
<rect x="983.1" y="150" fill="#11BC8B" width="9.4" height="9.4"/>
<rect x="983.1" y="161.3" fill="#11BC8B" width="9.4" height="9.4"/>
<rect x="983.1" y="172.7" fill="#11BC8B" width="9.4" height="9.4"/>
<rect x="935.2" y="128.3" fill="#FFFFFF" width="4.7" height="4.7"/>
<rect x="935.2" y="133.9" fill="#FFFFFF" width="4.7" height="4.7"/>
<rect x="935.2" y="139.6" fill="#FFFFFF" width="4.7" height="4.7"/>
<rect x="691.6" y="216.5" fill="#11BC8B" width="5.1" height="5.1"/>
<rect x="691.6" y="222.7" fill="#11BC8B" width="5.1" height="5.1"/>
<polygon points="1016,247 1016,244 989,244 989,241 949,241 949,168 932,168 932,151 935,151 935,146 896,146 896,142 899,142 
	899,138 861,138 861,146 839,146 839,153 832,153 832,160 829,160 829,163 832,163 832,174 829,174 829,177 832,177 832,188 
	829,188 829,191 832,191 832,202 829,202 829,205 832,205 832,216 829,216 829,219 832,219 832,230 829,230 829,233 832,233 
	832,240 826,240 826,237 780,237 780,238 783,238 783,240 736,240 736,242 740,242 740,250 719,250 719,250.9 672.4,247 568.5,247 
	-26.1,324.8 953.1,309 1024,309 1024,247 "/>
<g>
	<rect x="919.2" y="156.6" fill="#D86AA1" width="9.4" height="9.4"/>
	<rect x="919.2" y="167.9" fill="#C45C95" width="9.4" height="9.4"/>
	<rect x="919.2" y="179.3" fill="#963C72" width="9.4" height="9.4"/>
	<rect x="919.2" y="190.6" fill="#5B1B44" width="9.4" height="9.4"/>
	<rect x="919.2" y="201.9" fill="#330726" width="9.4" height="9.4"/>
	<rect x="877.5" y="163.3" fill="#F78989" width="2.6" height="5.1"/>
	<rect x="877.5" y="169.5" fill="#F78989" width="2.6" height="5.1"/>
	<rect x="877.5" y="175.7" fill="#F78989" width="2.6" height="5.1"/>
	<rect x="877.5" y="181.8" fill="#F78989" width="2.6" height="5.1"/>
	<rect x="877.5" y="188" fill="#F78989" width="2.6" height="5.1"/>
	<rect x="877.5" y="138.6" fill="#F78989" width="2.6" height="5.1"/>
	<rect x="877.5" y="144.8" fill="#F78989" width="2.6" height="5.1"/>
	<rect x="877.5" y="151" fill="#F78989" width="2.6" height="5.1"/>
	<rect x="877.5" y="157.2" fill="#F78989" width="2.6" height="5.1"/>
	<rect x="877.5" y="163.3" fill="#F78989" width="2.6" height="5.1"/>
</g>
<rect x="923.9" y="81.4" fill="#F78989" width="6.7" height="5.1"/>
<rect x="923.9" y="87.6" fill="#F78989" width="6.7" height="5.1"/>
<rect x="923.9" y="93.7" fill="#F78989" width="6.7" height="5.1"/>
<rect x="923.9" y="99.9" fill="#F78989" width="6.7" height="5.1"/>
<rect x="923.9" y="106.1" fill="#F78989" width="6.7" height="5.1"/>
<rect x="923.9" y="112.2" fill="#F78989" width="6.7" height="5.1"/>
<rect x="923.9" y="118.4" fill="#F78989" width="6.7" height="5.1"/>
<rect x="923.9" y="56.7" fill="#F78989" width="6.7" height="5.1"/>
<rect x="923.9" y="62.9" fill="#F78989" width="6.7" height="5.1"/>
<rect x="923.9" y="69.1" fill="#F78989" width="6.7" height="5.1"/>
<rect x="923.9" y="75.2" fill="#F78989" width="6.7" height="5.1"/>
<rect x="923.9" y="81.4" fill="#F78989" width="6.7" height="5.1"/>
<text transform="matrix(1 0 0 1 807.9639 118.043)" fill="#11BC8B" font-family="'HiraMaruPro-W4-83pv-RKSJ-H'" font-size="16.56">富士山</text>
<text transform="matrix(1 0 0 1 722.3173 148.9766)"><tspan x="0" y="0" fill="#FFB0B0" font-family="'HiraMaruPro-W4-83pv-RKSJ-H'" font-size="5.4398">カ</tspan><tspan x="0" y="6.5" fill="#FFB0B0" font-family="'HiraMaruPro-W4-83pv-RKSJ-H'" font-size="5.4398">ラ</tspan><tspan x="0" y="13.1" fill="#FFB0B0" font-family="'HiraMaruPro-W4-83pv-RKSJ-H'" font-size="5.4398">オ</tspan><tspan x="0" y="19.6" fill="#FFB0B0" font-family="'HiraMaruPro-W4-83pv-RKSJ-H'" font-size="5.4398">ケ</tspan></text>
<text transform="matrix(1 0 0 1 924.9725 62.0078)"><tspan x="0" y="0" font-family="'HiraMaruPro-W4-83pv-RKSJ-H'" font-size="5.0126">東</tspan><tspan x="0" y="6" font-family="'HiraMaruPro-W4-83pv-RKSJ-H'" font-size="5.0126">京</tspan><tspan x="0" y="12" font-family="'HiraMaruPro-W4-83pv-RKSJ-H'" font-size="5.0126">ス</tspan><tspan x="0" y="18" font-family="'HiraMaruPro-W4-83pv-RKSJ-H'" font-size="5.0126">カ</tspan><tspan x="0" y="24.1" font-family="'HiraMaruPro-W4-83pv-RKSJ-H'" font-size="5.0126">イ</tspan><tspan x="0" y="30.1" font-family="'HiraMaruPro-W4-83pv-RKSJ-H'" font-size="5.0126">ツ</tspan><tspan x="0" y="36.1" font-family="'HiraMaruPro-W4-83pv-RKSJ-H'" font-size="5.0126">リ</tspan><tspan x="0" y="42.1" font-family="'HiraMaruPro-W4-83pv-RKSJ-H'" font-size="5.0126"> I</tspan><tspan x="0" y="48.1" font-family="'HiraMaruPro-W4-83pv-RKSJ-H'" font-size="5.0126">タ</tspan><tspan x="0" y="54.1" font-family="'HiraMaruPro-W4-83pv-RKSJ-H'" font-size="5.0126">ウ</tspan><tspan x="0" y="60.2" font-family="'HiraMaruPro-W4-83pv-RKSJ-H'" font-size="5.0126">ン</tspan></text>
<path fill="#EDEDED" d="M817.6,88.3"/>
<polygon fill="#474747" points="949,241 949,201.9 958.9,201 958.9,210.5 969,210.5 969,204.6 979.6,204.6 979.6,198.2 988.6,198.2 
	989,241 "/>
</svg>
